# xmcd
#
# Track frame offsets:
#	150
#	15612
#	31955
#	46465
#	61405
#	75865
#	91655
#	104442
#	120770
#	136972
#	153560
#	167317
#	182232
#	201705
#
# Disc length: 2845 seconds
#
# Revision: 0
# Processed by: cddbd v1.5.2PL0 Copyright (c) Steve Scherf et al.
# Submitted via: audiograbber 1.83.01
#
DISCID=a90b1b0e
DTITLE=The Handsome Family - Odessa
DYEAR=1994
DGENRE=Country
TTITLE0=Here's Hopin'
TTITLE1=Arlene
TTITLE2=Pony
TTITLE3=One Way Up
TTITLE4=Water into Wine
TTITLE5=Giant Ant
TTITLE6=Everything that Rises Must Converge
TTITLE7=Gorilla
TTITLE8=The Last
TTITLE9=Claire Said
TTITLE10=Moving Furniture Around
TTITLE11=Big Bad Wolf
TTITLE12=She Awoke with a Jerk
TTITLE13=Happy Harvest
EXTD=
EXTT0=
EXTT1=
EXTT2=
EXTT3=
EXTT4=
EXTT5=
EXTT6=
EXTT7=
EXTT8=
EXTT9=
EXTT10=
EXTT11=
EXTT12=
EXTT13=
PLAYORDER=
